<svg id="Layer_1" data-name="Layer 1" xmlns="http://www.w3.org/2000/svg" viewBox="0 0 197.1 82.01"><defs><style>.cls-1{fill:#231f20;}.cls-2{fill:#e9e6d8;}</style></defs><path class="cls-1" d="M166.1,51.75H161a6,6,0,0,0-4.84,2.46,6,6,0,0,0-4.84-2.46h-5.09a6,6,0,0,0-4.27,1.8c-.14-.08-.26-.18-.39-.25a15.36,15.36,0,0,0-7.42-1.83A16.9,16.9,0,0,0,126,53.38l-.34.21a6,6,0,0,0-4.32-1.84h-4.87a6,6,0,0,0-4.79,2.39,6,6,0,0,0-4.8-2.39h-6.21A5.7,5.7,0,0,0,99,52a5.7,5.7,0,0,0-1.66-.24H92.29a6,6,0,0,0-4.77,2.36,6,6,0,0,0-4.77-2.36H77.66a6,6,0,0,0-3.86,1.41,13.66,13.66,0,0,0-6.23-1.43H55.75a6,6,0,0,0-4.29,1.81c-.13-.08-.24-.17-.38-.24a15.3,15.3,0,0,0-7.42-1.83,16.86,16.86,0,0,0-8.13,1.91,13.85,13.85,0,0,0-5.82,6,17.82,17.82,0,0,0-1.81,8.18V75a17.75,17.75,0,0,0,1.81,8.17,13.74,13.74,0,0,0,5.84,6A16.89,16.89,0,0,0,43.66,91a15.24,15.24,0,0,0,7.43-1.84c.13-.07.25-.17.38-.24a6,6,0,0,0,4.28,1.8h5.08a6,6,0,0,0,4.59-2.13A6,6,0,0,0,70,90.73h6.16a6,6,0,0,0,3.75-1.33A17.47,17.47,0,0,0,87.5,91a17.28,17.28,0,0,0,8.15-1.88c.21-.12.42-.24.62-.37a6,6,0,0,0,4.42,1.95h4.86a6,6,0,0,0,4.78-2.37,6,6,0,0,0,4.77,2.37h6.26a6,6,0,0,0,4.3-1.82l.38.22a16.93,16.93,0,0,0,8.12,1.9,15.23,15.23,0,0,0,7.42-1.84c.13-.07.25-.17.38-.24a6,6,0,0,0,4.28,1.8h5.09a6,6,0,0,0,4.84-2.46A6,6,0,0,0,161,90.73h5.09a6,6,0,0,0,6-6v-27A6,6,0,0,0,166.1,51.75Z" transform="translate(-1.45 -8.99)"/><path class="cls-2" d="M47.17,78a4.29,4.29,0,0,1-1.5,1.44,4.07,4.07,0,0,1-2,.49,4.75,4.75,0,0,1-2.43-.58,3.78,3.78,0,0,1-1.53-1.7A6.26,6.26,0,0,1,39.17,75v-7.4a6.28,6.28,0,0,1,.53-2.7,3.76,3.76,0,0,1,1.53-1.71,4.75,4.75,0,0,1,2.43-.59,3.89,3.89,0,0,1,2,.51,4.29,4.29,0,0,1,1.5,1.44,6.7,6.7,0,0,1,.92,2.29h5.27a13.67,13.67,0,0,0-1.81-5,8.91,8.91,0,0,0-3.31-3.18,9.34,9.34,0,0,0-4.55-1.1,10.94,10.94,0,0,0-5.27,1.19,7.93,7.93,0,0,0-3.34,3.44,12,12,0,0,0-1.15,5.45V75a12,12,0,0,0,1.15,5.45,7.91,7.91,0,0,0,3.34,3.43A11.06,11.06,0,0,0,43.66,85a9.27,9.27,0,0,0,4.54-1.1,9,9,0,0,0,3.3-3.18,14,14,0,0,0,1.83-5H48.06A6.54,6.54,0,0,1,47.17,78Z" transform="translate(-1.45 -8.99)"/><path class="cls-2" d="M70,84.73h6.16L69.71,73.6a6.88,6.88,0,0,0,1.77-.73A6.77,6.77,0,0,0,74.1,70a10.13,10.13,0,0,0,0-8.48,6.77,6.77,0,0,0-2.62-2.83,7.48,7.48,0,0,0-3.91-1H55.75v27h5.08V73.87h3.09Zm-9.17-22.1h6.33a2.42,2.42,0,0,1,2.31,1.5,4,4,0,0,1,.33,1.67,4.32,4.32,0,0,1-.35,1.67A2.42,2.42,0,0,1,67.16,69H60.83Z" transform="translate(-1.45 -8.99)"/><path class="cls-2" d="M92.29,57.75V75.1A4.93,4.93,0,0,1,91,78.7a5.48,5.48,0,0,1-7,0,5,5,0,0,1-1.24-3.6V57.75H77.66V75a12,12,0,0,0,1.15,5.43,7.9,7.9,0,0,0,3.36,3.43,12.63,12.63,0,0,0,10.66,0,7.89,7.89,0,0,0,3.38-3.43A11.83,11.83,0,0,0,97.37,75V57.75Z" transform="translate(-1.45 -8.99)"/><polygon class="cls-2" points="115.05 48.76 115.05 68.51 105.45 48.76 99.24 48.76 99.24 75.72 104.1 75.72 104.1 56.27 113.66 75.72 119.91 75.72 119.91 48.76 115.05 48.76"/><path class="cls-2" d="M137.66,78a4.29,4.29,0,0,1-1.5,1.44,4,4,0,0,1-2,.49,4.7,4.7,0,0,1-2.43-.58,3.86,3.86,0,0,1-1.54-1.7,6.27,6.27,0,0,1-.52-2.69v-7.4a6.28,6.28,0,0,1,.52-2.7,3.83,3.83,0,0,1,1.54-1.71,4.7,4.7,0,0,1,2.43-.59,3.86,3.86,0,0,1,2,.51,4.29,4.29,0,0,1,1.5,1.44,6.7,6.7,0,0,1,.92,2.29h5.27a13.49,13.49,0,0,0-1.81-5,8.91,8.91,0,0,0-3.31-3.18,9.3,9.3,0,0,0-4.54-1.1,10.91,10.91,0,0,0-5.27,1.19,7.87,7.87,0,0,0-3.34,3.44,11.83,11.83,0,0,0-1.15,5.45V75a11.86,11.86,0,0,0,1.15,5.45,7.85,7.85,0,0,0,3.34,3.43A11,11,0,0,0,134.16,85a9.26,9.26,0,0,0,4.53-1.1A9.06,9.06,0,0,0,142,80.73a13.86,13.86,0,0,0,1.82-5h-5.27A6.54,6.54,0,0,1,137.66,78Z" transform="translate(-1.45 -8.99)"/><polygon class="cls-2" points="159.56 48.76 159.56 59.91 149.88 59.91 149.88 48.76 144.79 48.76 144.79 75.73 149.88 75.73 149.88 64.81 159.56 64.81 159.56 75.73 164.65 75.73 164.65 48.76 159.56 48.76"/><path class="cls-1" d="M198.55,20.17v-4.9a6,6,0,0,0-6-6H174.48a6,6,0,0,0-4.56,2.11c-.24-.14-.49-.27-.75-.4a19.39,19.39,0,0,0-8.33-1.71h-8.93a6,6,0,0,0-6,5.31l-.55-1.45a6,6,0,0,0-5.61-3.86h-3.23a6,6,0,0,0-5.6,3.86l-.56,1.45a6,6,0,0,0-6-5.31h-6.7a6,6,0,0,0-5.14,2.91,6,6,0,0,0-5.14-2.91h-6.7a6.06,6.06,0,0,0-1.21.12,6,6,0,0,0-1.21-.12H80.28a6.13,6.13,0,0,0-1.78.27,6.13,6.13,0,0,0-1.78-.27H70a6,6,0,0,0-5.14,2.91,6,6,0,0,0-5.14-2.91H53a6,6,0,0,0-4.41,2L48.25,11a16.55,16.55,0,0,0-8.07-2,16.4,16.4,0,0,0-8.06,2c-.14.07-.26.17-.4.25a6,6,0,0,0-4.42-2H22.22a6,6,0,0,0-4.85,2.46,6,6,0,0,0-4.84-2.46H7.45a6,6,0,0,0-6,6v27a6,6,0,0,0,6,6h5.08a6,6,0,0,0,4.84-2.46,6,6,0,0,0,4.85,2.46H27.3a6,6,0,0,0,4.42-2c.14.07.26.17.4.25a16.51,16.51,0,0,0,8.06,2,16.55,16.55,0,0,0,8.07-2c.13-.07.25-.17.38-.25a5.93,5.93,0,0,0,4.41,2h4.62a6,6,0,0,0,5.2-3h4a6,6,0,0,0,5.2,3h4.62A5.81,5.81,0,0,0,78.5,48a5.81,5.81,0,0,0,1.78.27H98.35a6,6,0,0,0,1.21-.12,6.06,6.06,0,0,0,1.21.12h4.62a6,6,0,0,0,5.2-3h4a6,6,0,0,0,5.2,3h4.62a6.82,6.82,0,0,0,.9-.07,6.69,6.69,0,0,0,.9.07h5.47a6,6,0,0,0,5.66-4l.11-.3h1.37l.11.3a6,6,0,0,0,5.67,4h5.47a6.82,6.82,0,0,0,.9-.07,6.56,6.56,0,0,0,.9.07h8.91a18.81,18.81,0,0,0,8.56-1.85l.52-.28a6,6,0,0,0,4.58,2.13h18.07a6,6,0,0,0,6-6v-4.9a6,6,0,0,0-2.2-4.65,6.32,6.32,0,0,0,.16-1.4V26.41a6.18,6.18,0,0,0-.2-1.56A6,6,0,0,0,198.55,20.17Z" transform="translate(-1.45 -8.99)"/><polygon class="cls-2" points="20.77 6.28 20.77 17.43 11.08 17.43 11.08 6.28 6 6.28 6 33.26 11.08 33.26 11.08 22.33 20.77 22.33 20.77 33.26 25.85 33.26 25.85 6.28 20.77 6.28"/><path class="cls-2" d="M48.81,19.72a8.55,8.55,0,0,0-3.46-3.49A10.54,10.54,0,0,0,40.18,15,10.53,10.53,0,0,0,35,16.23a8.52,8.52,0,0,0-3.47,3.49,10.82,10.82,0,0,0-1.22,5.22v7.64a10.89,10.89,0,0,0,1.22,5.23A8.64,8.64,0,0,0,35,41.3a10.53,10.53,0,0,0,5.16,1.23,10.54,10.54,0,0,0,5.17-1.23,8.67,8.67,0,0,0,3.46-3.49A10.78,10.78,0,0,0,50,32.58V24.94A10.71,10.71,0,0,0,48.81,19.72Zm-4,13a5.26,5.26,0,0,1-.57,2.49,4,4,0,0,1-1.61,1.66,5.22,5.22,0,0,1-4.82,0,3.94,3.94,0,0,1-1.6-1.66,5.26,5.26,0,0,1-.57-2.49v-7.9a5.26,5.26,0,0,1,.57-2.49,4,4,0,0,1,1.6-1.66,5.3,5.3,0,0,1,4.82,0,4,4,0,0,1,1.61,1.66,5.26,5.26,0,0,1,.57,2.49Z" transform="translate(-1.45 -8.99)"/><polygon class="cls-2" points="68.57 6.28 63.43 24.46 58.29 6.28 51.59 6.28 51.59 33.26 56.21 33.26 56.21 14.46 61.19 30.25 65.68 30.25 70.65 14.1 70.65 33.26 75.27 33.26 75.27 6.28 68.57 6.28"/><polygon class="cls-2" points="96.9 11.18 96.9 6.28 83.92 6.28 80.67 6.28 78.83 6.28 78.83 33.26 80.67 33.26 83.92 33.26 96.9 33.26 96.9 28.36 83.92 28.36 83.92 22.31 94.86 22.31 94.86 17.41 83.92 17.41 83.92 11.18 96.9 11.18"/><polygon class="cls-2" points="116.3 6.28 111.16 24.46 106.02 6.28 99.32 6.28 99.32 33.26 103.94 33.26 103.94 14.46 108.92 30.25 113.41 30.25 118.38 14.1 118.38 33.26 123 33.26 123 6.28 116.3 6.28"/><path class="cls-2" d="M144.64,42.25h5.47l-10.32-27h-3.23l-10.31,27h5.47l1.52-4.32h9.88ZM135,33l3.23-9.2L141.4,33Z" transform="translate(-1.45 -8.99)"/><path class="cls-2" d="M170.22,19.71a8,8,0,0,0-3.62-3.31,13.42,13.42,0,0,0-5.76-1.13h-8.93v27h8.91A12.86,12.86,0,0,0,166.68,41a8.1,8.1,0,0,0,3.59-3.37,10.35,10.35,0,0,0,1.2-5.09V24.94A10.33,10.33,0,0,0,170.22,19.71Zm-4,13a4.32,4.32,0,0,1-1.38,3.42,5.68,5.68,0,0,1-3.87,1.2h-4V20.17h4a5.63,5.63,0,0,1,3.87,1.21,4.28,4.28,0,0,1,1.38,3.41Z" transform="translate(-1.45 -8.99)"/><polygon class="cls-2" points="191.1 11.18 191.1 6.28 178.12 6.28 174.87 6.28 173.03 6.28 173.03 33.26 174.87 33.26 178.12 33.26 191.1 33.26 191.1 28.36 178.12 28.36 178.12 22.31 189.06 22.31 189.06 17.41 178.12 17.41 178.12 11.18 191.1 11.18"/></svg>